<svg xmlns="http://www.w3.org/2000/svg" xmlns:xlink="http://www.w3.org/1999/xlink" version="1.1" x="0px" y="0px" viewBox="0 0 100 100" enable-background="new 0 0 100 100" xml:space="preserve" fill="#66c766"><path d="M93.7 28.9c-1 0-1.8 0.8-1.8 1.8c0 0.3 0.1 0.5 0.2 0.8c-1.1 2.5-7.4 15.8-11.3 13c-3.9-2.8-5-13.1-5.2-15.4 c0.4-0.3 0.6-0.8 0.6-1.4c0-1-0.8-1.8-1.8-1.8c-1 0-1.8 0.8-1.8 1.8c0 0.9 0.7 1.7 1.6 1.8c1.2 3.7 2.2 11.7 1.6 13.9 c-1.2 4.7-8.8 5.3-8.8 5.3l-0.1 0c-0.4-2.6-1.5-5.1-2.7-6.6c-3.6-6.3-10.2-20.4-31.3-13.9c-5.7 3.2-12.3 9.2-15.2 18 c-2.1 6.5-1.6 10.9 0.1 13.9c-3.1 0.2-8.5 0.6-11.2 1.2c-5.1 1.1 7 6.4 7 6.4s3.3 5.3 8.5 2.5c8.8 4.5 8.1 1.3 11 1.5 c2.9 0.2 6.2 0.7 7.4 1.4c1.2 0.7 2-1.1 4-1.4c2-0.3 4.7 1 7.1 1.5c0.9 0.2 2.9-3 4.8-1.9c1.9 1.1 5.1 0 6.5-0.7 c1.3-0.6 2.1-0.4 3-0.2c0.9 0.2 1.9 0.1 3.9-1.5c2-1.6 1.9-1 8.1-2.7s7.6-8.1 7.2-13.2C84.8 49 86 47.5 86 47.5s4.2-12.8 7.4-14.9 c0.1 0 0.2 0 0.3 0c1 0 1.8-0.8 1.8-1.8C95.6 29.8 94.7 28.9 93.7 28.9"/></svg>
