<svg xmlns="http://www.w3.org/2000/svg" xmlns:xlink="http://www.w3.org/1999/xlink" version="1.1" x="0px" y="0px" viewBox="0 0 100 100" style="enable-background:new 0 0 100 100;" xml:space="preserve" fill="#f47983"><g><path d="M48.1,51.1c8.3-1.9,14.3-8.8,15.4-16.7c0,0,0,0,0.1-0.1l3.3-12.3c-1.3,3.1-4,6.4-4,6.4c-0.5-4.6-5.2-9.1-5.2-9.1   c2.5-2,6.8-6.1,9.5-1.5c0.3,0.5,0.4,1.1,0.3,1.7l2.2-8.2c-0.3-0.3-0.6-0.6-1-0.8c-7.5-5.4-14.5,1.7-16,3.5c-4-2-8.7-2.6-13.4-1.6   c-4.6,1.1-8.5,3.7-11.3,7.1c-2.5-1-11.5-4.1-15.8,3.9c-5,9.3,7.4,16.8,7.4,16.8s3.8,1.5,7.4,2.5C31.3,49.4,39.7,53.1,48.1,51.1z    M53.9,30.3c1-0.2,1.9,0.4,2.2,1.4c0.2,1-0.4,1.9-1.4,2.2c-1,0.2-1.9-0.4-2.2-1.4C52.3,31.5,52.9,30.5,53.9,30.3z M41,36.2   c0,0,0-3.3,3.2-4c3.1-0.7,4.8,2.2,4.8,2.2c5.3,9.5,0.3,11.4-4,11.4C40.6,45.8,41,36.2,41,36.2z M34.6,35c1-0.2,1.9,0.4,2.2,1.4   c0.2,1-0.4,1.9-1.4,2.2c-1,0.2-1.9-0.4-2.2-1.4C33,36.2,33.6,35.2,34.6,35z M25.7,37c0,0-9.8-2.6-8.9-8.2c0.9-5.5,6.3-3.4,9.4-2.6   C26.2,26.2,24.1,32.4,25.7,37z"/><path d="M41.4,69.4c0.9,0,1.8-0.1,2.8-0.2c11.6-1.6,18.7-15.3,20.2-17c1.4-1.7,8.5-0.3,8.5-2.4c0-1.7-3.4-2.5-4.7-2.8   c-0.3,0-0.5-0.1-0.5-0.1s0.2,0,0.5,0.1c0.7,0.1,1.9,0.3,3.1,0.3c1.4,0,2.8-0.2,3.1-1.1c0.5-1.5-3.7-2.2-5.3-2.5   c-0.2,0-0.5-0.1-0.7-0.1c0,0,0.3,0,0.7,0.1c0.7,0.1,1.6,0.1,2.4,0.1c2.4,0,4.6-0.5,2.5-2.1c-2.2-1.7-4.5-1.9-6.1-1.9   c-0.6,0-1.1,0-1.4,0c-1.3,0-2.4,0.9-2.4,0.9s0,0-2.4,4.1c-2.4,4.1-9.1,7-9.1,7c-3.1,1.5-6,2.1-8.7,2.1c-7.6,0-13-4.7-13-4.7   C25.6,61.5,31.4,69.4,41.4,69.4z"/><path d="M68.9,76.8c-0.7-0.5-1.4-0.7-2.1-0.7c-2.5,0-4.6,2.7-4.6,2.7c-1.1,2.4,0.2,2.7,1,2.7c0.4,0,0.7-0.1,0.7-0.1l-0.3,1.1   c-0.2,1.4,0.1,1.8,0.7,1.8c0.8,0,1.9-0.9,1.9-0.9c-0.3,0.5-1,1.9,0,2.4c0.3,0.1,0.6,0.2,0.8,0.2c0.7,0,1.2-0.7,2.5-2.3   C71,82.1,72.3,79.1,68.9,76.8z"/><path d="M83.6,17c-0.2,0-0.4,0-0.7,0.1c-2.9,0.5-0.7,2,0.3,2.9c1,1,1,1.4,1,1.4s-1.8-1.5-3.1-1.5c-0.2,0-0.4,0-0.6,0.1   c-1.3,0.6-1.5,1.7,0.5,3.5c2,1.8,3.3,3.2,2.8,5.2c-0.2,0.6,0.1,0.9,0.6,0.9c1,0,3.1-1.4,4-3.2c1.2-2.7-1.4-7.2-1.4-7.2   S86,17,83.6,17z"/><path d="M70.6,75.4c0,0,0.6,0.6,1.1,1.5c0.7,0.9,1,1.8,1.1,2.5c0,0.3,0.1,0.6,0,0.9c1.3-0.8,5.4-7.9,0.3-13.7L70.6,75.4z"/><path d="M46.8,96c0.3,0,0.5-0.1,0.9-0.3c1-0.6,0.7-2.2,0.4-2.7c0,0,1.1,0.9,1.9,0.9c0.5,0,0.9-0.4,0.7-1.8l-0.2-0.9   c0,0,0.5,0.1,1,0.1c1,0,2.1-0.4,0.3-2.7c0,0-2.1-2.7-4.6-2.7c-0.7,0-1.4,0.2-2.1,0.7c-3.3,2.3-2.5,4.7-0.8,6.9   C45.6,95.2,46.1,96,46.8,96z"/><path d="M82.1,28.3c0.2-0.9-0.1-1.5-2.3-3.5c-0.6-0.5-2.3-2.1-2.1-4c0.1-0.7,0.5-1.7,2-2.4c0,0,0,0,0.1,0c-0.1-0.4-0.1-0.8,0-1.2   c0.5-1.5,2.2-1.8,2.8-1.9c0.3,0,0.6-0.1,0.9-0.1c0.9,0,1.7,0.2,2.4,0.5c1.1-4.6,2.2-9.2,3.1-13.6L73.8,2c0,0-1,4.2-2.7,10.8   c0,0,0,0,0,0l-5.3,19.5c0,0,0.1-0.1,0.1-0.1c-0.6,2.1-1.2,4.2-1.8,6.4c0.6-0.3,1.3-0.5,2.2-0.5c0.1,0,0.3,0,0.5,0c0.3,0,0.6,0,1,0   c2.8,0,5.2,0.7,7.1,2.2c1.6,1.2,1.7,2.4,1.4,3.2c-0.1,0.4-0.4,0.7-0.7,1c0,0,0,0,0,0c0.4,0.6,0.5,1.4,0.3,2.1   c-0.3,0.9-0.9,1.4-1.6,1.8c0.2,0.4,0.3,0.9,0.3,1.3c0,0.6-0.3,2.2-2.6,2.8c-0.9,0.2-2,0.3-3.2,0.4c-1,0.1-2.7,0.2-3.2,0.4   c-0.2,0.2-0.5,0.7-0.8,1.2c-1.5,2.3-4.4,6.8-8.7,10.6c-2.3,7.1-4.7,13.8-7,19.6c2.2,0.8,3.8,2.7,4,3c0.5,0.7,1.9,2.4,1,4   c-0.2,0.4-0.7,1.1-1.8,1.3c0,0.6-0.2,1.3-0.6,1.8c-0.5,0.5-1.1,0.8-1.9,0.8c0,0,0,0-0.1,0c-0.3,0.7-0.7,1.2-1.3,1.6   c-0.4,0.2-1,0.5-1.7,0.5c-1,0-1.7-0.5-2.4-1.3L44,97.7L60.5,98c0,0,1.6-4.4,4.1-11.5c-0.1-0.1-0.2-0.2-0.2-0.4   c-0.7,0-1.3-0.3-1.8-0.8c-0.6-0.7-0.7-1.6-0.6-2.2c-0.7-0.3-1.2-0.8-1.4-1.1c-0.6-1-0.6-2.3,0.2-3.9l0.1-0.2l0.1-0.2   c0.3-0.3,2.7-3.3,5.9-3.3c0.6,0,1.1,0.1,1.7,0.3c4.1-12.4,9.2-28.5,13.7-44.7C82,29.6,81.9,29,82.1,28.3z"/><path d="M41.2,89.4c0.2-1.6,1.2-3,3-4.1c0.7-0.5,1.4-0.7,2.1-0.9c-1.6-1.7-6.1-6.3-10.8-8.4c8.6,2.5,12.1,7.1,12.1,7.1l5.3-14.5   c-16.2,7.1-22.2-1-22.2-1l-0.3,7.2v2.6c0,0,0.7,6.8,3,9.4c2.3,2.6,8.7,8.8,8.7,8.8s0.2-0.6,0.5-1.5C41.4,92.5,41,90.9,41.2,89.4z"/></g></svg>
