<svg xmlns="http://www.w3.org/2000/svg" xmlns:xlink="http://www.w3.org/1999/xlink" version="1.1" x="0px" y="0px" viewBox="0 0 100 100" enable-background="new 0 0 100 100" xml:space="preserve" fill="#1959b3"><path d="M91.432,43.234c-1.526-1.8-2.757-3.014-4.078-2.759c-0.336,0.065-0.17-0.172-0.172-0.303  c-0.022-1.26-0.646-1.79-3.036-3.881c-1.69-1.478-0.686-4.409-1.875-3.406c-2.076,1.754-2.508,4.251-1.426,6.574  c0.782,1.678,0.979,2.448,0.823,3.312c-1.638,0.496-3.433,0.965-4.912,1.162c-1.404,0.187-3.378,0.033-6.112-0.279  c-0.252-0.039-0.364-0.372-0.133-0.591c0.231-0.218,1.463-0.024,0.708-0.531c-0.755-0.507-2.418,0.165-3.456,0.507  c-0.331,0.109-0.68,0.144-1.046,0.144c-4.277-0.517-9.857-1.159-17.156-1.57c-15.603-0.877-19.926,0.689-22.809,0.689  s-4.825-1.567-5.89-1.441s-3.133,1.065-5.89,1.567c-2.757,0.501-9.477,0.53-9.538,1.405c-0.049,0.705,5.465,1.474,9.413,1.988  c3.948,0.513,6.475,1.024,7.185,1.792c0.505,0.546,0.986,1.229,1.441,1.724c-1.446-1.266-1.859-1.577-4.031-1.896  c-2.423-0.355-14.616-2.116-14.558-1.354c0.533,7.09,14.885,12.875,33.248,12.875c7.335,0,14.11-0.922,19.609-2.48  c3.816-0.889,7.864-2.165,11.976-3.834c3.421-1.388,6.588-3.006,9.538-4.586c1.224-0.655,2.909-2.028,4.282-3.095  c1.373,0.24,2.056,0.628,3.678,1.123c1.864,0.568,5.119,1.623,7.352,0.111C95.843,45.336,92.958,45.035,91.432,43.234z   M25.26,48.952c0.453,0,0.819,0.149,0.819,0.333c0,0.184-0.367,0.333-0.819,0.333s-0.819-0.149-0.819-0.333  C24.44,49.101,24.807,48.952,25.26,48.952z M25.446,57.056c0,0-0.337-0.067-0.927-0.184c-0.588-0.127-1.449-0.231-2.446-0.506  c-1.005-0.244-2.165-0.573-3.396-0.968c-1.229-0.402-2.523-0.885-3.796-1.427c-0.623-0.3-1.267-0.56-1.865-0.891  c-0.611-0.307-1.193-0.646-1.742-1c-0.542-0.362-1.062-0.725-1.515-1.118c-0.463-0.381-0.867-0.78-1.238-1.149  c-0.713-0.769-1.216-1.484-1.525-2.005c-0.313-0.52-0.469-0.826-0.469-0.826l0.045-0.029c0,0,0.198,0.283,0.575,0.749  c0.19,0.232,0.42,0.512,0.698,0.82c0.272,0.313,0.615,0.631,0.975,0.988c0.38,0.339,0.791,0.704,1.26,1.049  c0.464,0.35,0.961,0.713,1.498,1.052c0.528,0.356,1.091,0.696,1.677,1.023c0.574,0.346,1.199,0.625,1.802,0.945  c1.241,0.572,2.509,1.088,3.718,1.524c1.213,0.424,2.353,0.799,3.343,1.081c0.981,0.313,1.835,0.45,2.418,0.599  c0.585,0.14,0.919,0.22,0.919,0.22L25.446,57.056z M26.39,55.579c0,0-0.244-0.045-0.672-0.126c-0.471-0.09-1.203-0.183-2.082-0.383  c-0.154-0.035-0.313-0.068-0.477-0.106c-0.741-0.172-1.568-0.391-2.439-0.651c-1.08-0.324-2.225-0.72-3.352-1.172  c-0.499-0.226-1.012-0.427-1.493-0.677c-0.487-0.233-0.956-0.485-1.397-0.756c-0.436-0.267-0.845-0.551-1.222-0.835  c-0.441-0.332-0.847-0.661-1.21-0.981c-0.227-0.217-0.433-0.431-0.619-0.635c-0.377-0.411-0.677-0.785-0.882-1.092  c-0.065-0.097-0.12-0.186-0.169-0.265c-0.192-0.296-0.289-0.466-0.289-0.466l0.044-0.031c0,0,0.182,0.227,0.521,0.604  c0.167,0.181,0.367,0.399,0.605,0.64c0.251,0.253,0.559,0.515,0.891,0.803c0.329,0.27,0.687,0.556,1.089,0.833  c0.409,0.282,0.849,0.57,1.314,0.855c0.458,0.281,0.937,0.564,1.437,0.832c0.496,0.282,1.028,0.518,1.549,0.776  c1.076,0.478,2.175,0.907,3.222,1.261c0.977,0.331,1.899,0.619,2.708,0.837c0.046,0.013,0.092,0.024,0.138,0.036  c0.909,0.25,1.666,0.383,2.138,0.493c0.327,0.076,0.544,0.125,0.622,0.144c0.024,0.006,0.036,0.018,0.036,0.018L26.39,55.579z   M27.333,54.103c0,0-0.15-0.026-0.417-0.068c-0.353-0.055-0.96-0.119-1.718-0.259c-0.135-0.025-0.275-0.049-0.419-0.077  c-0.609-0.117-1.293-0.276-2.016-0.467c-0.932-0.246-1.928-0.555-2.908-0.916c-0.376-0.152-0.757-0.294-1.122-0.463  c-0.364-0.159-0.717-0.33-1.053-0.512c-0.327-0.177-0.637-0.366-0.93-0.552c-0.427-0.271-0.826-0.542-1.181-0.813  c-0.208-0.169-0.399-0.337-0.575-0.499c-0.384-0.352-0.692-0.677-0.902-0.95c-0.053-0.069-0.099-0.135-0.141-0.194  c-0.203-0.28-0.307-0.441-0.307-0.441l0.042-0.034c0,0,0.166,0.17,0.466,0.458c0.143,0.131,0.312,0.289,0.513,0.46  c0.227,0.195,0.503,0.399,0.806,0.618c0.278,0.202,0.582,0.411,0.918,0.616c0.353,0.216,0.733,0.436,1.13,0.658  c0.383,0.214,0.783,0.432,1.198,0.64c0.417,0.218,0.857,0.41,1.295,0.607c0.911,0.384,1.843,0.719,2.725,0.998  c0.8,0.251,1.553,0.47,2.214,0.634c0.046,0.011,0.091,0.021,0.136,0.032c0.832,0.203,1.498,0.312,1.859,0.386  c0.209,0.043,0.341,0.072,0.38,0.081c0.012,0.003,0.016,0.023,0.016,0.023L27.333,54.103z M28.277,52.626  c0,0-0.752-0.035-1.878-0.193c-1.124-0.154-2.61-0.475-4.057-0.945c-0.726-0.225-1.441-0.494-2.096-0.786  c-0.646-0.313-1.218-0.668-1.684-1.007c-0.463-0.345-0.813-0.678-1.035-0.931c-0.214-0.263-0.325-0.416-0.325-0.416l0.04-0.036  c0,0,0.15,0.114,0.412,0.312c0.273,0.183,0.652,0.447,1.141,0.713c0.479,0.281,1.067,0.556,1.692,0.859  c0.628,0.299,1.301,0.62,1.999,0.886c1.393,0.542,2.848,0.922,3.947,1.166c1.099,0.236,1.851,0.325,1.851,0.325L28.277,52.626z   M42.99,56.98c-2.423,1.259-7.104-1.299-8.432-2.256c-1.328-0.958-1.52-1.758-2.826-2.826c0,0,5.677-0.451,7.149-0.404  c1.473,0.048,2.66,2.209,3.492,3.325C43.204,55.935,43.56,56.624,42.99,56.98z"/></svg>
