<svg xmlns="http://www.w3.org/2000/svg" xmlns:xlink="http://www.w3.org/1999/xlink" version="1.1" x="0px" y="0px" viewBox="0 0 100 100" style="enable-background:new 0 0 100 100;" xml:space="preserve" fill="#e50d00"><g><path d="M16.2,46.3c-2.3-1.5-1.9,1.3-4.1,4.4c-2.2,3.1,3.8,6.1,3.8,6.1s0.5-1.9,2-4.2C19.3,50.3,18.5,47.8,16.2,46.3z"/><path d="M26.7,48.4c-0.1,1.7,0.8,3.3,2.1,4.3c1,0.7,2.3,1.8,3.2,3.2c1.8,2.6,3.7-1.1,4.5-2.3c0.8-1.1,2-2.7-1.2-5.6   c-3.2-2.9-5.5-3.8-7.9-1.4C27.4,46.6,26.8,47,26.7,48.4z"/><path d="M30.2,25.6c0,0-1.5,3.3-0.1,4.6c1.4,1.3,2.5,3.6,5.9,1.2c3.4-2.4,2,1.5,5.4-2.1C44.8,25.7,37.5,17.4,30.2,25.6z"/><path d="M75.9,9.9C70.7,9.8,55,7.3,55,7.3c0.2,0.1,0.3,0.2,0.4,0.3c-1.4-1.1-2.9-2.1-4.6-3C26.4-8.6,14.4,18.5,13,21.8   c-3-0.7-6.2,1.2-6.3,4.5c-0.1,3.1,1.3,6.4,2.8,8c-11.8,16.1,1.3,26.6,1.3,26.6s4.6,11.1,5,12.3c0.4,1.2,0,0,2.2,3.6   c2.2,3.6,1.2,13.1,1.2,13.1s0,0-1.9,2c-1.9,2-2,4.4-0.4,6.1c1.6,1.7,11.7,1.1,15.1,0.5c3.4-0.6,2.9-6.5,3.5-12.8   c0.6-6.3,2.1-12.8,2.1-12.8s0,0,0.4-4.4c0.3-3.2,0.2-4.4,0.2-4.8l0.1,0c0,0-0.6,0.2,3.2,0.7c0,0-1.1,5.9,2.9,21.5l0,0.2   c-0.1,2.6-1.2,5.1-3,7c-0.6,0.7-1.1,1.6-1,2.6c0.1,3.1,2.9,2.9,12,2.5c9.1-0.4,6.9-5.4,8.3-10.7c1.3-5.3,1.8-21.8,4.5-26.7   c0.3-0.6,0.7-1.6,1.1-3.1c0-0.1,8.6-31.6-8.6-48.2c4.7,1.3,10.9,1.1,15.5,2c6.3,1.2,6.9-0.3,16.5,11.6c4.4,5.4,4.8,15.3,4.4,22.2   c-1.5,0.7-4.4-0.4-6.5-1.3c-1.5-0.7-2.7-1.7-3.6-3.1c0,0,0,0-0.1-0.1c-0.4-2-1.6-8.4-3-14.1c-0.1-0.3-0.5-0.2-0.4,0.1   c0.4,3.6,1,9.3,1.1,13.1C81.4,59,72.3,63.3,68.7,64.3c-2.7,0.3-4.9,0.2-4.9,0.2s12.3,9.8,6.8,14.3c-6.9,5.7,6.1,9.4,11.2,7.8   c5.1-1.6,7.4-4.3,8.5-9.9c1.1-5.6,2.8-18.9,2.9-23.6c0-0.3,0.1-0.7,0.2-1.2c-0.1,0.8-0.2,1.2-0.2,1.2C102.2,24,81.2,10.1,75.9,9.9z    M52.6,23.3c-1.8,6-5.2,2.8-4,8.5c0,0,0.9,1.7,0.7,5.3c-1.3-2.8-3.6-6-7.9-7.9c0,0,7.8,4.9,6.9,19.1c0,0-3.5,15.3-15.3,14.7   c-0.6,3.5-2.3,5.9-7,6.2c-0.5-0.7-0.9-1.9-1.2-2.8c1.1-0.3,3.2-1.1,4.2-3.1c0,0-4.6,1.1-9.5,0.8c0,0,1.2,2,4.3,2.5   c0.2,1.1,0.6,2,1.1,2.8c-0.2,0-0.4,0-0.6,0c-6.1-0.2-8.4-7.7-8.4-7.7C5.8,56.9,6.3,46.9,6.9,44.1C7.3,42,9,36.9,9.8,34.5   c0.9,0.8,1.8,0.8,2.3-0.4c1.7-3.6,3.7-2.1,5.5-4.6c0.9-1.2,0.1-3,0.1-3c-1-2.8-2.8-4.3-4.7-4.8C22.8,3.9,32.3,4.1,32.3,4.1   s0-0.7,6.5-0.5s11.9,5.6,11.9,5.6l2,6.2C53.2,17.9,53.4,20.8,52.6,23.3z"/></g></svg>
